HIERARCHY
ROOT Hips
{
    OFFSET   0.000000   0.000000   0.000000
    CHANNELS 6 Xposition Yposition Zposition Zrotation Xrotation Yrotation
    JOINT Chest
    {
        OFFSET   0.000000   8.007230   0.000000
        CHANNELS 3 Zrotation Xrotation Yrotation
        JOINT Chest2
        {
            OFFSET   0.000000  22.077100   0.000000
            CHANNELS 3 Zrotation Xrotation Yrotation
            JOINT Neck
            {
                OFFSET   0.000000  23.254800  -0.000021
                CHANNELS 3 Zrotation Xrotation Yrotation
                JOINT Head
                {
                    OFFSET   0.000000  14.370000   1.956610
                    CHANNELS 3 Zrotation Xrotation Yrotation
                    End Site
                    {
                        OFFSET   0.000000  19.566000   0.000000
                    }
                }
            }
            JOINT LeftCollar
            {
                OFFSET   3.911900  19.017000  -0.467063
                CHANNELS 3 Zrotation Xrotation Yrotation
                JOINT LeftShoulder
                {
                    OFFSET  10.383700   0.000000   0.000000
                    CHANNELS 3 Zrotation Xrotation Yrotation
                    JOINT LeftElbow
                    {
                        OFFSET  26.662100   0.001529   0.000325
                        CHANNELS 3 Zrotation Xrotation Yrotation
                        JOINT LeftWrist
                        {
                            OFFSET  28.869000  -0.000011  -0.000096
                            CHANNELS 3 Zrotation Xrotation Yrotation
                            JOINT LeftFinger0
                            {
                                OFFSET   2.044650  -2.323460   3.252850
                                CHANNELS 3 Zrotation Xrotation Yrotation
                                JOINT LeftFinger01
                                {
                                    OFFSET   3.088130   0.000000   0.000000
                                    CHANNELS 3 Zrotation Xrotation Yrotation
                                    JOINT LeftFinger02
                                    {
                                        OFFSET   2.639460   0.000000   0.000000
                                        CHANNELS 3 Zrotation Xrotation Yrotation
                                        End Site
                                        {
                                            OFFSET   2.582190   0.000000   0.000000
                                        }
                                    }
                                }
                            }
                            JOINT LeftFinger1
                            {
                                OFFSET   8.364480   0.000000   3.252850
                                CHANNELS 3 Zrotation Xrotation Yrotation
                                JOINT LeftFinger11
                                {
                                    OFFSET   4.646930   0.000000   0.000000
                                    CHANNELS 3 Zrotation Xrotation Yrotation
                                    JOINT LeftFinger12
                                    {
                                        OFFSET   2.323460   0.000000   0.000000
                                        CHANNELS 3 Zrotation Xrotation Yrotation
                                        End Site
                                        {
                                            OFFSET   2.273050   0.000000   0.000000
                                        }
                                    }
                                }
                            }
                            JOINT LeftFinger2
                            {
                                OFFSET   8.364480   0.000016   1.078090
                                CHANNELS 3 Zrotation Xrotation Yrotation
                                JOINT LeftFinger21
                                {
                                    OFFSET   5.111620   0.000000   0.000000
                                    CHANNELS 3 Zrotation Xrotation Yrotation
                                    JOINT LeftFinger22
                                    {
                                        OFFSET   2.788160   0.000017   0.000000
                                        CHANNELS 3 Zrotation Xrotation Yrotation
                                        End Site
                                        {
                                            OFFSET   2.727660   0.000000   0.000000
                                        }
                                    }
                                }
                            }
                            JOINT LeftFinger3
                            {
                                OFFSET   7.899780   0.000015  -1.078090
                                CHANNELS 3 Zrotation Xrotation Yrotation
                                JOINT LeftFinger31
                                {
                                    OFFSET   4.646920   0.000000   0.000000
                                    CHANNELS 3 Zrotation Xrotation Yrotation
                                    JOINT LeftFinger32
                                    {
                                        OFFSET   2.323470   0.000000   0.000000
                                        CHANNELS 3 Zrotation Xrotation Yrotation
                                        End Site
                                        {
                                            OFFSET   2.273050   0.000000   0.000000
                                        }
                                    }
                                }
                            }
                            JOINT LeftFinger4
                            {
                                OFFSET   7.435090   0.000000  -3.252850
                                CHANNELS 3 Zrotation Xrotation Yrotation
                                JOINT LeftFinger41
                                {
                                    OFFSET   3.717550   0.000000   0.000000
                                    CHANNELS 3 Zrotation Xrotation Yrotation
                                    JOINT LeftFinger42
                                    {
                                        OFFSET   1.858760   0.000000   0.000000
                                        CHANNELS 3 Zrotation Xrotation Yrotation
                                        End Site
                                        {
                                            OFFSET   1.818440   0.000000   0.000000
                                        }
                                    }
                                }
                            }
                        }
                    }
                }
            }
            JOINT RightCollar
            {
                OFFSET  -3.911900  19.017000  -0.467062
                CHANNELS 3 Zrotation Xrotation Yrotation
                JOINT RightShoulder
                {
                    OFFSET -10.383700   0.000015   0.000000
                    CHANNELS 3 Zrotation Xrotation Yrotation
                    JOINT RightElbow
                    {
                        OFFSET -26.662100   0.001341   0.000385
                        CHANNELS 3 Zrotation Xrotation Yrotation
                        JOINT RightWrist
                        {
                            OFFSET -28.869000   0.000025  -0.000080
                            CHANNELS 3 Zrotation Xrotation Yrotation
                            JOINT RightFinger0
                            {
                                OFFSET  -2.044650  -2.323490   3.252850
                                CHANNELS 3 Zrotation Xrotation Yrotation
                                JOINT RightFinger01
                                {
                                    OFFSET  -3.088130   0.000000   0.000000
                                    CHANNELS 3 Zrotation Xrotation Yrotation
                                    JOINT RightFinger02
                                    {
                                        OFFSET  -2.639460   0.000000   0.000000
                                        CHANNELS 3 Zrotation Xrotation Yrotation
                                        End Site
                                        {
                                            OFFSET  -2.582190   0.000000   0.000000
                                        }
                                    }
                                }
                            }
                            JOINT RightFinger1
                            {
                                OFFSET  -8.364480   0.000000   3.252850
                                CHANNELS 3 Zrotation Xrotation Yrotation
                                JOINT RightFinger11
                                {
                                    OFFSET  -4.646930   0.000000   0.000000
                                    CHANNELS 3 Zrotation Xrotation Yrotation
                                    JOINT RightFinger12
                                    {
                                        OFFSET  -2.323470   0.000000   0.000000
                                        CHANNELS 3 Zrotation Xrotation Yrotation
                                        End Site
                                        {
                                            OFFSET  -2.273050   0.000000   0.000000
                                        }
                                    }
                                }
                            }
                            JOINT RightFinger2
                            {
                                OFFSET  -8.364480   0.000000   1.078090
                                CHANNELS 3 Zrotation Xrotation Yrotation
                                JOINT RightFinger21
                                {
                                    OFFSET  -5.111610   0.000000   0.000000
                                    CHANNELS 3 Zrotation Xrotation Yrotation
                                    JOINT RightFinger22
                                    {
                                        OFFSET  -2.788160   0.000000   0.000000
                                        CHANNELS 3 Zrotation Xrotation Yrotation
                                        End Site
                                        {
                                            OFFSET  -2.727660   0.000000   0.000000
                                        }
                                    }
                                }
                            }
                            JOINT RightFinger3
                            {
                                OFFSET  -7.899780   0.000000  -1.078090
                                CHANNELS 3 Zrotation Xrotation Yrotation
                                JOINT RightFinger31
                                {
                                    OFFSET  -4.646920   0.000000   0.000000
                                    CHANNELS 3 Zrotation Xrotation Yrotation
                                    JOINT RightFinger32
                                    {
                                        OFFSET  -2.323470   0.000000   0.000000
                                        CHANNELS 3 Zrotation Xrotation Yrotation
                                        End Site
                                        {
                                            OFFSET  -2.273050   0.000000   0.000000
                                        }
                                    }
                                }
                            }
                            JOINT RightFinger4
                            {
                                OFFSET  -7.435090   0.000000  -3.252850
                                CHANNELS 3 Zrotation Xrotation Yrotation
                                JOINT RightFinger41
                                {
                                    OFFSET  -3.717550   0.000000   0.000000
                                    CHANNELS 3 Zrotation Xrotation Yrotation
                                    JOINT RightFinger42
                                    {
                                        OFFSET  -1.858770   0.000000   0.000000
                                        CHANNELS 3 Zrotation Xrotation Yrotation
                                        End Site
                                        {
                                            OFFSET  -1.818440   0.000000   0.000000
                                        }
                                    }
                                }
                            }
                        }
                    }
                }
            }
        }
    }
    JOINT LeftHip
    {
        OFFSET   9.783010   0.000000   0.000000
        CHANNELS 3 Zrotation Xrotation Yrotation
        JOINT LeftKnee
        {
            OFFSET   0.000070 -41.789100   0.000028
            CHANNELS 3 Zrotation Xrotation Yrotation
            JOINT LeftAnkle
            {
                OFFSET   0.000087 -41.133200  -0.000100
                CHANNELS 3 Zrotation Xrotation Yrotation
                JOINT LeftToe
                {
                    OFFSET   0.000000  -6.358960  14.674500
                    CHANNELS 3 Zrotation Xrotation Yrotation
                    End Site
                    {
                        OFFSET   0.000000   0.000000   3.913200
                    }
                }
            }
        }
    }
    JOINT RightHip
    {
        OFFSET  -9.783020   0.000000   0.000000
        CHANNELS 3 Zrotation Xrotation Yrotation
        JOINT RightKnee
        {
            OFFSET   0.000044 -41.789100  -0.000870
            CHANNELS 3 Zrotation Xrotation Yrotation
            JOINT RightAnkle
            {
                OFFSET  -0.000090 -41.133200  -0.000245
                CHANNELS 3 Zrotation Xrotation Yrotation
                JOINT RightToe
                {
                    OFFSET   0.000000  -6.358960  14.674500
                    CHANNELS 3 Zrotation Xrotation Yrotation
                    End Site
                    {
                        OFFSET   0.000000   0.000000   3.913200
                    }
                }
            }
        }
    }
}
MOTION
Frames: 4
Frame Time:   0.016667
  1.788190  89.519600   0.174908  -1.999340  -1.393720   1.202970   0.989515   2.043130  -0.814596   2.009940   4.071670  -1.665980  -1.973160   0.894598   0.039527  -3.238590   1.807150   5.881590  -4.994900   3.910930   9.409390 -80.085700  -1.148920  -1.216460   0.261599  -0.177665 -17.032700   4.887030  -3.945510  -2.458580  40.070000  31.401400 -44.834100 -30.150000   0.001310   0.000861 -10.075000   0.000926   0.000000 -32.511300  -1.411930   2.229230 -26.622400  -0.011753   0.002698 -18.635700   0.005505  -0.001352 -29.773500  -3.744140   6.508280 -44.979800   0.002350  -0.005769 -29.956500   0.001483   0.002948 -27.818100  -5.119390   9.602590 -33.721400   0.000613   0.012630 -22.458500   0.002576  -0.008310 -30.951700  -6.220040  10.240800 -47.264400   0.000877  -0.000571 -31.478100   0.002214   0.004467   6.029650   5.728570   6.058160  71.811600 -16.348100   2.195780   1.542960 -10.651900  13.818100 -11.717500   6.562280   4.347240 -39.569600  35.158600  67.434300  32.115100  -0.000219   0.000190  11.057500  -0.002307   0.002380  33.263400   2.472300   3.762420  27.281900   0.000381  -0.013058  19.094800  -0.014671   0.000088  28.710500  -0.385608  -0.704216  39.144700  -0.000826  -0.000078  26.070300  -0.000519  -0.000285  28.733000  -1.660260  -3.025720  40.991100  -0.002183   0.003002  27.300000  -0.001274   0.000490  35.076900  -1.984770  -2.823600  52.688700  -0.000715   0.004850  35.090700   0.002312  -0.003901   3.462090   2.700530  -3.558360  -0.369978  -0.000229   8.084250  -1.383080  -2.381800   0.635141  -0.000000   0.000000   0.000000   0.496409   0.333870  -5.548760  -2.119540   5.524460 -12.363700   2.151200  -3.923140   1.780640  -0.000000   0.000000  -0.000000
  1.782270  89.519600   0.188235  -1.998990  -1.404780   1.209880   0.989584   2.054050  -0.810170   2.010050   4.093560  -1.657380  -1.973220   0.900469   0.039551  -3.239720   1.818970   5.889390  -4.996110   3.910690   9.406950 -80.076300  -1.111340  -1.232960   0.264797  -0.166381 -17.111200   4.878660  -3.977010  -2.487790  40.054800  31.324500 -44.812600 -30.113000   0.001308   0.000842 -10.056400   0.000922  -0.000000 -32.518400  -1.411930   2.220890 -26.628200  -0.011751   0.002700 -18.639800   0.005505  -0.001356 -29.793800  -3.744200   6.502590 -45.010100   0.002357  -0.005767 -29.976700   0.001488   0.002947 -27.818400  -5.119380   9.602890 -33.746100   0.000616   0.012626 -22.474900   0.002583  -0.008294 -30.975200  -6.190200  10.183700 -47.291000   0.000880  -0.000572 -31.495800   0.002216   0.004470   6.030360   5.728630   6.050670  71.811100 -16.356400   2.172330   1.560010 -10.657100  13.898800 -11.731700   6.567120   4.393050 -39.584100  35.157600  67.432600  32.103300  -0.000217   0.000224  11.051600  -0.002305   0.002374  33.265300   2.477590   3.770220  27.283700   0.000381  -0.013065  19.097200  -0.014672   0.000085  28.710600  -0.377321  -0.689106  39.119400  -0.000837  -0.000079  26.053500  -0.000525  -0.000273  28.733900  -1.652160  -3.010970  40.973400  -0.002191   0.002994  27.288200  -0.001280   0.000500  35.068600  -1.974690  -2.810120  52.675800  -0.000720   0.004850  35.082100   0.002307  -0.003895   3.463470   2.725230  -3.558430  -0.368871   0.000070   8.084150  -1.386320  -2.386450   0.635147  -0.000000   0.000000   0.000000   0.502223   0.358343  -5.548860  -2.119360   5.522710 -12.363100   2.149310  -3.931150   1.765970  -0.000000   0.000000   0.000000
  1.771990  89.519600   0.209008  -1.998450  -1.421570   1.219710   0.989747   2.071780  -0.805748   2.010540   4.129110  -1.648810  -1.973280   0.912826   0.039574  -3.240540   1.843950   5.909330  -4.998890   3.908900   9.399350 -80.056200  -1.073750  -1.249460   0.267812  -0.155056 -17.249400   4.868910  -4.024430  -2.526190  40.031800  31.223500 -44.776700 -30.069700   0.001306   0.000822 -10.034800   0.000919   0.000000 -32.528100  -1.411940   2.212540 -26.636200  -0.011747   0.002703 -18.645400   0.005505  -0.001365 -29.814100  -3.744280   6.496890 -45.040300   0.002375  -0.005764 -29.996800   0.001501   0.002943 -27.818700  -5.119370   9.603310 -33.770800   0.000625   0.012617 -22.491300   0.002600  -0.008257 -30.998700  -6.160350  10.126600 -47.317600   0.000888  -0.000573 -31.513500   0.002226   0.004477   6.031380   5.728610   6.040130  71.817200 -16.372400   2.128850   1.597020 -10.674500  14.065900 -11.772800   6.577680   4.481770 -39.603300  35.153600  67.425800  32.080200  -0.000212   0.000258  11.040100  -0.002303   0.002362  33.274600   2.491260   3.789660  27.292100   0.000384  -0.013079  19.104500  -0.014679   0.000072  28.711000  -0.359943  -0.657391  39.094100  -0.000865  -0.000088  26.036700  -0.000542  -0.000242  28.735700  -1.633770  -2.977450  40.955600  -0.002215   0.002979  27.276400  -0.001298   0.000524  35.061400  -1.952380  -2.779080  52.663000  -0.000735   0.004849  35.073500   0.002294  -0.003878   3.464720   2.750110  -3.558500  -0.365483   0.002159   8.084060  -1.393420  -2.399630   0.635158  -0.000000   0.000000   0.000000   0.511878   0.394160  -5.549030  -2.119200   5.521030 -12.359600   2.145560  -3.944620   1.741790  -0.000000   0.000000  -0.000000
  1.762780  89.519600   0.222488  -1.997700  -1.430840   1.224440   0.988763   2.084790  -0.806142   2.008870   4.155160  -1.649680  -1.968320   0.927566   0.039556  -3.237310   1.874020   5.937640  -5.001730   3.889410   9.380990 -80.022300  -1.078750  -1.235070   0.250169  -0.156187 -17.365600   4.867850  -4.041510  -2.532670  40.026000  31.208300 -44.764700 -30.065500   0.001311   0.000845 -10.032800   0.000921   0.000031 -32.529300  -1.420920   2.226420 -26.637600  -0.011742   0.002706 -18.646400   0.005505  -0.001381 -29.810000  -3.744330   6.498080 -45.034200   0.002406  -0.005764 -29.992800   0.001521   0.002934 -27.815000  -5.119360   9.603490 -33.752300   0.000640   0.012605 -22.479000   0.002628  -0.008207 -30.982600  -6.161530  10.136200 -47.294100   0.000902  -0.000575 -31.497900   0.002242   0.004483   6.037620   5.725780   6.035420  71.836900 -16.383700   2.084600   1.649210 -10.709900  14.260300 -11.848400   6.595960   4.578660 -39.609900  35.141700  67.421000  32.055900  -0.000207   0.000233  11.028000  -0.002307   0.002350  33.295000   2.514420   3.821840  27.309900   0.000394  -0.013091  19.117100  -0.014695   0.000030  28.711400  -0.336649  -0.614824  39.106000  -0.000905  -0.000107  26.044600  -0.000570  -0.000197  28.738500  -1.606300  -2.927260  40.971300  -0.002260   0.002961  27.286900  -0.001327   0.000556  35.071200  -1.919950  -2.731970  52.674800  -0.000758   0.004850  35.081400   0.002273  -0.003853   3.464050   2.750240  -3.552330  -0.361457   0.037115   8.084080  -1.403800  -2.428720   0.631352  -0.000000   0.000000  -0.000000   0.520079   0.405152  -5.549240  -2.118740   5.526290 -12.350600   2.141350  -3.955740   1.722370   0.000000   0.000000   0.000000
